<?xml version="1.0" encoding="UTF-8" standalone="no"?>

<svg
   fill="#000000"
   height="900"
   width="2800"
   version="1.1"
   viewBox="0 0 1280.622 411.6285"
   xml:space="preserve"
   sodipodi:docname="dcf77-transmitter-logo.svg"
   inkscape:version="1.2.1 (9c6d41e410, 2022-07-14)"
   xmlns:inkscape="http://www.inkscape.org/namespaces/inkscape"
   xmlns:sodipodi="http://sodipodi.sourceforge.net/DTD/sodipodi-0.dtd"
   xmlns="http://www.w3.org/2000/svg"
   xmlns:svg="http://www.w3.org/2000/svg">

<circle
   cx="191.16046"
   cy="220.67355"
   r="33.785831"
   id="circle2219"
   style="stroke-width:0.814234" /><path
   d="m 191.16127,122.34452 c -29.03396,0 -45.47979,11.3787 -62.37759,35.03464 -4.82108,6.74838 -3.25775,16.12673 3.4898,20.94699 2.64545,1.88984 5.69476,2.79934 8.71557,2.79934 4.6851,0 9.30099,-2.18703 12.23061,-6.28915 11.27388,-15.7823 18.58401,-22.45961 37.9408,-22.45961 19.35841,0 26.66772,6.67731 37.93998,22.4588 4.81945,6.74674 14.1978,8.31252 20.94699,3.49144 6.74837,-4.82027 8.3117,-14.19862 3.49143,-20.94699 -16.89617,-23.65757 -33.342,-35.03546 -62.37759,-35.03546 z"
   id="path2221"
   style="stroke-width:0.814234"
   sodipodi:nodetypes="scsscscccs" /><path
   d="m 191.16127,64.20588 c -41.47546,0 -70.1975,16.79405 -97.943339,47.67062 -5.542492,6.16864 -5.036039,15.66261 1.133413,21.20592 2.868547,2.57786 6.456066,3.84725 10.031366,3.84725 4.1127,-8.1e-4 8.20911,-1.67976 11.17373,-4.97985 22.05842,-24.54753 42.63975,-37.71173 75.60564,-37.71173 32.9659,0 53.54804,13.1642 75.60727,37.71091 5.54331,6.16864 15.03728,6.67509 21.2051,1.1326 6.16864,-5.5433 6.67509,-15.03727 1.1326,-21.2051 C 261.35958,80.99912 232.63591,64.20588 191.16127,64.20588 Z"
   id="path2223"
   style="stroke-width:0.814234"
   sodipodi:nodetypes="sccccscscs" /><path
   d="M 324.84542,67.7043 C 286.40624,28.546154 246.00808,7.895893 191.16127,7.895893 c -54.84437,0 -95.242525,20.650261 -133.683332,59.810037 -5.809561,5.91867 -5.721624,15.42485 0.19623,21.23441 2.923101,2.86936 6.721503,4.30079 10.518277,4.29997 3.888782,0 7.77675,-1.50226 10.716135,-4.4962 32.7485,-33.35998 65.53519,-50.816819 112.25269,-50.816819 46.71994,0 79.50664,17.456839 112.25188,50.815189 5.81037,5.91867 15.31737,6.00579 21.23522,0.19705 5.91786,-5.80956 6.00579,-15.31656 0.19705,-21.23523 z"
   id="path2225"
   style="stroke-width:0.814234"
   sodipodi:nodetypes="csccccsccc" /><rect
   style="fill:#000000;fill-opacity:1;stroke:none;stroke-width:0.813326;stroke-linecap:round"
   id="rect8966"
   width="103.21432"
   height="32.312134"
   x="82.784187"
   y="210.14684"
   ry="16.156067"
   transform="rotate(-1.4320432)" /><rect
   style="fill:#000000;fill-opacity:1;stroke:none;stroke-width:0.813326;stroke-linecap:round"
   id="rect8966-5"
   width="178.44893"
   height="26.490356"
   x="-456.3627"
   y="-32.783794"
   ry="13.245178"
   transform="rotate(-134.65281)" /><rect
   style="fill:#000000;fill-opacity:1;stroke:none;stroke-width:1.1389;stroke-linecap:round"
   id="rect9483"
   width="54.094135"
   height="17.775789"
   x="6.1723237"
   y="213.44305"
   ry="8.8878946" /><rect
   style="fill:#000000;fill-opacity:1;stroke:none;stroke-width:1.1389;stroke-linecap:round"
   id="rect9483-1"
   width="54.094135"
   height="17.775789"
   x="323.54871"
   y="213.44305"
   ry="8.8878946" /><rect
   style="fill:#000000;fill-opacity:1;stroke:none;stroke-width:1.1389;stroke-linecap:round"
   id="rect9483-1-6"
   width="54.094135"
   height="17.775789"
   x="355.27353"
   y="-200.04922"
   ry="8.8878946"
   transform="rotate(90)" /><rect
   style="fill:#000000;fill-opacity:1;stroke:none;stroke-width:0.998885;stroke-linecap:round"
   id="rect9483-7"
   width="41.610874"
   height="17.775789"
   x="97.762062"
   y="87.41581"
   ry="8.8878946"
   transform="rotate(30)" /><rect
   style="fill:#000000;fill-opacity:1;stroke:none;stroke-width:0.998885;stroke-linecap:round"
   id="rect9483-1-0"
   width="41.610874"
   height="17.775789"
   x="415.1384"
   y="87.41581"
   ry="8.8878946"
   transform="rotate(30)" /><rect
   style="fill:#000000;fill-opacity:1;stroke:none;stroke-width:0.998885;stroke-linecap:round"
   id="rect9483-1-6-1"
   width="41.610874"
   height="17.775789"
   x="235.48834"
   y="-285.39725"
   ry="8.8878946"
   transform="rotate(120)" /><rect
   style="fill:#000000;fill-opacity:1;stroke:none;stroke-width:0.998885;stroke-linecap:round"
   id="rect9483-1-0-2"
   width="41.610874"
   height="17.775789"
   x="425.85934"
   y="-64.215462"
   ry="8.8878946"
   transform="rotate(60)" /><rect
   style="fill:#000000;fill-opacity:1;stroke:none;stroke-width:0.998885;stroke-linecap:round"
   id="rect9483-1-6-1-1"
   width="41.610874"
   height="17.775789"
   x="83.856483"
   y="-296.11823"
   ry="8.8878946"
   transform="rotate(150)" /><rect
   style="fill:#000000;fill-opacity:1;stroke:none;stroke-width:0.998885;stroke-linecap:round"
   id="rect9483-1-6-3-2-6"
   width="41.610874"
   height="17.775789"
   x="-235.88039"
   y="-296.11823"
   ry="8.8878946"
   transform="rotate(150)" /><g
   id="g436"
   transform="matrix(1.3103052,0,0,1.3103052,-132.97013,-41.933397)"><text
     xml:space="preserve"
     style="font-style:normal;font-variant:normal;font-weight:bold;font-stretch:normal;font-size:212.452px;font-family:monospace;-inkscape-font-specification:'monospace, Bold';font-variant-ligatures:normal;font-variant-caps:normal;font-variant-numeric:normal;font-variant-east-asian:normal;fill:#000000;stroke-width:0.531131"
     x="444.327"
     y="212.74593"
     id="text319"><tspan
       sodipodi:role="line"
       id="tspan317"
       style="font-style:normal;font-variant:normal;font-weight:bold;font-stretch:normal;font-size:212.452px;font-family:monospace;-inkscape-font-specification:'monospace, Bold';font-variant-ligatures:normal;font-variant-caps:normal;font-variant-numeric:normal;font-variant-east-asian:normal;stroke-width:0.531131"
       x="444.327"
       y="212.74593">DCF<tspan
   style="font-style:normal;font-variant:normal;font-weight:bold;font-stretch:normal;font-size:198.289px;font-family:monospace;-inkscape-font-specification:'monospace, Bold';font-variant-ligatures:normal;font-variant-caps:normal;font-variant-numeric:normal;font-variant-east-asian:normal;stroke-width:0.531131"
   id="tspan429">77</tspan></tspan></text><text
     xml:space="preserve"
     style="font-style:normal;font-variant:normal;font-weight:bold;font-stretch:normal;font-size:182.946px;font-family:monospace;-inkscape-font-specification:'monospace, Bold';font-variant-ligatures:normal;font-variant-caps:normal;font-variant-numeric:normal;font-variant-east-asian:normal;fill:#000000;stroke-width:0.457365"
     x="443.67285"
     y="294.52756"
     id="text377"><tspan
       sodipodi:role="line"
       id="tspan375"
       style="font-style:normal;font-variant:normal;font-weight:bold;font-stretch:normal;font-size:91.473px;font-family:monospace;-inkscape-font-specification:'monospace, Bold';font-variant-ligatures:normal;font-variant-caps:normal;font-variant-numeric:normal;font-variant-east-asian:normal;stroke-width:0.457365"
       x="443.67285"
       y="294.52756">Transmitter</tspan></text></g></svg>
